<?xml version="1.0" encoding="iso-8859-1"?>
<!-- Generator: Adobe Illustrator 19.0.0, SVG Export Plug-In . SVG Version: 6.00 Build 0)  -->
<svg version="1.1" id="Capa_1" xmlns="http://www.w3.org/2000/svg" xmlns:xlink="http://www.w3.org/1999/xlink" x="0px" y="0px"
	 viewBox="0 0 465.302 465.302" style="enable-background:new 0 0 465.302 465.302;" xml:space="preserve">
<path style="fill:#FDC75B;" d="M449.7,228.451h5.7c0,38.4-35,69.4-78.3,69.4c-43.2,0-78.2-31.1-78.2-69.4h5.7L449.7,228.451
	L449.7,228.451z"/>
<g>
	<polygon style="fill:#ED664C;" points="331.3,380.551 331.3,422.451 134.1,422.451 134.1,380.551 167.2,380.551 298.2,380.551 	"/>
	<path style="fill:#ED664C;" d="M298.2,377.651v2.9h-131v-2.9c0-30.3,29.3-54.8,65.5-54.8S298.2,347.351,298.2,377.651z"/>
</g>
<g>
	<path style="fill:#FDC75B;" d="M271.1,80.751c0.1,0.2,0.1,0.4,0.1,0.6c0,21.3-17.2,38.5-38.5,38.5s-38.5-17.2-38.5-38.5
		c0-0.2,0-0.4,0.1-0.6c0.3-21,17.4-37.9,38.4-37.9S270.8,59.751,271.1,80.751z"/>
	<path style="fill:#FDC75B;" d="M160.8,228.451h5.7c0,38.4-35,69.4-78.2,69.4c-43.3,0-78.3-31.1-78.3-69.4h5.7L160.8,228.451
		L160.8,228.451z"/>
</g>
<path d="M457.7,218.651l-71-142.4l-0.6-1.2c-1.7-3.4-5.2-5.5-8.9-5.5l0,0c-1.7,0-3.4,0-4.8,1H280c-4.9-21-24.3-37.9-47.3-37.9
	s-42.4,17-47.3,38H93c-1.5-1-3.1-1.2-4.8-1.2c-3.8,0-7.3,2.2-8.9,5.6l-71.6,143.6c-4.4,1-7.7,5-7.7,9.7c0,43.8,39.6,79.5,88.3,79.5
	s88.2-35.6,88.2-79.4c0-4.7-3.3-8.7-7.7-9.8l-63.8-128h80.1c3.7,19,18.6,34.2,37.6,38.2v184.6c-34.2,3.9-61.3,27.2-65.1,57.2h-23.5
	c-5.5,0-10.4,4.3-10.4,9.9v41.9c0,5.5,4.9,10.2,10.4,10.2h197.1c5.5,0,10.4-4.7,10.4-10.2v-41.9c0-5.5-4.9-9.9-10.4-9.9h-23.5
	c-3.8-30-30.8-53.3-65.1-57.2v-184.6c18.9-4,33.8-19.2,37.6-38.2h80.1l-63.8,128c-4.4,1.1-7.7,5-7.7,9.7c0,43.8,39.6,79.5,88.2,79.5
	c48.7,0,88.3-35.6,88.3-79.4C465.4,223.651,462.2,219.751,457.7,218.651z M88.3,288.051c-33.7,0-61.9-21.4-67.3-49.4h134.6
	C150.1,266.651,122,288.051,88.3,288.051z M146.4,218.651H30.2l58.1-116.5L146.4,218.651z M321.7,390.651v22h-178v-22H321.7z
	 M287.5,370.651H177.9c4.2-21,27.2-37.7,54.8-37.7S283.3,349.651,287.5,370.651z M232.7,109.851c-15.6,0-28.3-12.6-28.5-28.1
	c0-0.3,0-0.6,0-0.8c0.2-15.4,13-28,28.4-28s28.2,12.6,28.4,28c0,0.3,0,0.6,0,0.9C261,97.351,248.3,109.851,232.7,109.851z
	 M377.1,102.151l58.1,116.5H319L377.1,102.151z M377.1,288.051c-33.7,0-61.8-21.4-67.3-49.4h134.6
	C439,266.651,410.9,288.051,377.1,288.051z"/>
<g>
</g>
<g>
</g>
<g>
</g>
<g>
</g>
<g>
</g>
<g>
</g>
<g>
</g>
<g>
</g>
<g>
</g>
<g>
</g>
<g>
</g>
<g>
</g>
<g>
</g>
<g>
</g>
<g>
</g>
</svg>
